<svg xmlns="http://www.w3.org/2000/svg"  viewBox="0 0 24 24" width="64px" height="64px" clip-rule="evenodd"><path d="M19 9.25c.464 0 .909-.184 1.237-.513.329-.328.513-.773.513-1.237 0-1.222 0-3.278 0-4.5 0-.966-.783-1.75-1.75-1.75l-14 0c-.967 0-1.75.784-1.75 1.75l0 4.5c0 .464.184.909.513 1.237.328.329.773.513 1.237.513 0 0 1.125 0 1.125 0 0 0 1.275 1.7 1.275 1.7.142.189.364.3.6.3.236 0 .458-.111.6-.3l1.275-1.7c0 0 4.25 0 4.25 0 0 0 1.275 1.7 1.275 1.7.142.189.364.3.6.3.236 0 .458-.111.6-.3l1.275-1.7 1.125 0zm0-1.5l-1.5 0c-.236 0-.458.111-.6.3l-.9 1.2c0 0-.9-1.2-.9-1.2-.142-.189-.364-.3-.6-.3l-5 0c-.236 0-.458.111-.6.3l-.9 1.2c0 0-.9-1.2-.9-1.2-.142-.189-.364-.3-.6-.3l-1.5 0c-.066 0-.13-.026-.177-.073-.047-.047-.073-.111-.073-.177 0 0 0-4.5 0-4.5 0-.138.112-.25.25-.25 0 0 14 0 14 0 .138 0 .25.112.25.25 0 1.222 0 3.278 0 4.5 0 .066-.026.13-.073.177-.047.047-.111.073-.177.073zM12 12.375c-1.518 0-2.75 1.232-2.75 2.75 0 1.518 1.232 2.75 2.75 2.75 1.518 0 2.75-1.232 2.75-2.75 0-1.518-1.232-2.75-2.75-2.75zm0 1.5c.69 0 1.25.56 1.25 1.25 0 .69-.56 1.25-1.25 1.25-.69 0-1.25-.56-1.25-1.25 0-.69.56-1.25 1.25-1.25zM18 12.25c-1.242 0-2.25 1.008-2.25 2.25 0 1.242 1.008 2.25 2.25 2.25 1.242 0 2.25-1.008 2.25-2.25 0-1.242-1.008-2.25-2.25-2.25zm0 1.5c.414 0 .75.336.75.75 0 .414-.336.75-.75.75-.414 0-.75-.336-.75-.75 0-.414.336-.75.75-.75zM5.5 12.25c-1.242 0-2.25 1.008-2.25 2.25 0 1.242 1.008 2.25 2.25 2.25 1.242 0 2.25-1.008 2.25-2.25 0-1.242-1.008-2.25-2.25-2.25zm0 1.5c.414 0 .75.336.75.75 0 .414-.336.75-.75.75-.414 0-.75-.336-.75-.75 0-.414.336-.75.75-.75zM8 22.75l0 0 8 0c0 0 .75-.059.75-.763 0-.078 0-.491 0-.987 0-.729-.29-1.429-.805-1.945-.516-.515-1.216-.805-1.945-.805l-4 0c-.729 0-1.429.29-1.945.805-.515.516-.805 1.216-.805 1.945 0 .496 0 .909 0 .987 0 .702.747.763.75.763zm7.25-1.5l-6.5 0 0-.25c0-.332.132-.649.366-.884.235-.234.552-.366.884-.366 0 0 4 0 4 0 .332 0 .649.132.884.366.234.235.366.552.366.884l0 .25zM21.461 21.249l.039.001.032-.004c.144-.02.718-.139.718-.754l0-.617c0-1.519-1.231-2.75-2.75-2.75-.941 0-2.059 0-3 0-.414 0-.75.336-.75.75 0 .414.336.75.75.75l3 0c.69 0 1.25.56 1.25 1.25l0 .625c0 .018.001.035.002.052l.002.025.002.016c.018.163.079.285.16.377.13.161.325.268.545.279zM1.961 21.249l.039.001.032-.004c.144-.02.718-.139.718-.754 0 0 0-.617 0-.617 0-.69.56-1.25 1.25-1.25 0 0 3 0 3 0 .414 0 .75-.336.75-.75 0-.414-.336-.75-.75-.75-.941 0-2.059 0-3 0-1.519 0-2.75 1.231-2.75 2.75l0 .617 0 0 0 .008c0 .401.315.729.711.749z"/></svg>